# xmcd CD database file generated by Grip 2.99.0
# 
# Track frame offsets:
#       150
#       15875
#       30590
#       51812
#       66700
#       85767
#       104487
#       125677
#       142875
#       164557
# 
# Disc length: 2399 seconds
# 
# Revision: 2
# Processed by: cddbd v1.4PL0 Copyright (c) Steve Scherf et al.
# Submitted via: Grip 2.99.0
# 
DISCID=84095d0a
DTITLE=Linda Hopkins - How Blue Can You Get
DYEAR=1995
DGENRE=Blues
TTITLE0=You Could Have Had Me, Baby
TTITLE1=Salty Papa Blues
TTITLE2=Born on a Friday
TTITLE3=Why Don't You Do Right
TTITLE4=What Can You Do For Me-
TTITLE5=Evil Gal Blues
TTITLE6=Counting My Tears
TTITLE7=How Blue Can You Get
TTITLE8=I'm Hungry
TTITLE9=Precious Lord
EXTD=YEAR: 1995 ID3G: 0
EXTT0=
EXTT1=
EXTT2=
EXTT3=
EXTT4=
EXTT5=
EXTT6=
EXTT7=
EXTT8=
EXTT9=
PLAYORDER=
